<svg role="img" viewBox="0 0 50 50" xmlns="http://www.w3.org/2000/svg" id="Xcode--Streamline-Simple-Icons.svg" height="50" width="50"><desc>Xcode Streamline Icon: https://streamlinehq.com</desc><title>Xcode</title><path d="M39.708333333333336 11.109791666666668c0.9410416666666667 -0.4033333333333334 1.6133333333333335 -0.5377083333333333 2.285416666666667 -0.4033333333333334 1.075625 0.26895833333333335 1.6133333333333335 1.075625 2.0166666666666666 1.47875 0.4033333333333334 0.8066666666666668 1.8820833333333333 1.6133333333333335 2.5543750000000003 1.7477083333333334 0.5377083333333333 0.13437500000000002 1.47875 -1.344375 2.151041666666667 -2.68875 0.6722916666666667 -1.21 1.075625 -2.8233333333333333 0.9410416666666667 -3.226666666666667 -0.13437500000000002 -0.4033333333333334 -2.0166666666666666 -1.21 -2.42 -1.21 -0.26895833333333335 0 -0.8066666666666668 0.26895833333333335 -1.7477083333333334 0.13437500000000002 -0.9410416666666667 -0.13437500000000002 -1.8820833333333333 -1.21 -2.42 -2.0166666666666666 -0.9410416666666667 -1.344375 -2.285416666666667 -2.151041666666667 -3.495416666666667 -2.8233333333333333 -1.344375 -0.6722916666666667 -2.8233333333333333 -1.075625 -4.302083333333334 -1.344375 -2.151041666666667 -0.5377083333333333 -4.302083333333334 -0.9410416666666667 -6.453125000000001 -0.6722916666666667 -1.21 0.13437500000000002 -2.68875 0.26895833333333335 -3.7643750000000002 0.6722916666666667 -0.13437500000000002 0 -0.4033333333333334 0.4033333333333334 -0.13437500000000002 0.4033333333333334s1.21 0.13437500000000002 1.21 0.13437500000000002 -1.2097916666666668 0.2691666666666667 -1.2097916666666668 0.538125c0 0.26895833333333335 0.13437500000000002 0.26895833333333335 0.26895833333333335 0.26895833333333335 0.13437500000000002 0 3.0920833333333335 -0.13437500000000002 4.302083333333334 0 1.344375 0.26895833333333335 2.8233333333333333 0.9410416666666667 3.7643750000000002 2.5543750000000003 1.6133333333333335 2.9577083333333336 0.9410416666666667 5.781041666666668 0.5377083333333333 6.722083333333334 -2.0166666666666666 4.436458333333334 -18.015 31.72791666666667 -18.82166666666667 33.61 -0.806875 1.8820833333333333 -1.075625 3.0920833333333335 1.2097916666666668 4.302083333333334s3.495416666666667 0.6722916666666667 4.167708333333334 -0.13437500000000002c0.8066666666666668 -1.075625 14.653958333333334 -35.761250000000004 19.359375000000004 -38.04666666666667zm-7.5287500000000005 18.149375000000003h3.226666666666667c2.151041666666667 0 2.5543750000000003 1.075625 2.5543750000000003 1.47875 0.13437500000000002 1.075625 -0.4033333333333334 2.42 -2.5543750000000003 2.42h-2.0166666666666666l1.6133333333333335 2.68875c0.9410416666666667 1.6133333333333335 0.5377083333333333 2.42 0 2.9577083333333336 -0.8066666666666668 0.8066666666666668 -2.5543750000000003 0.8066666666666668 -3.495416666666667 -0.9410416666666667l-1.8820833333333333 -3.226666666666667c-1.344375 2.9577083333333336 -2.68875 6.184166666666667 -4.302083333333334 9.948541666666667h8.335208333333334c4.033125 0 7.394166666666667 -3.361041666666667 7.394166666666667 -7.394166666666667V13.664166666666667c-0.13437500000000002 -0.26895833333333335 -0.4033333333333334 -0.13437500000000002 -0.5377083333333333 0 -0.8066666666666668 0.9410416666666667 -3.0920833333333335 4.1675 -8.335416666666667 15.595zm-20.43479166666667 16.670625h-0.6722916666666667c-4.839791666666668 0 -8.738541666666666 -3.89875 -8.738541666666666 -8.738541666666666V14.605208333333335c0 -4.839791666666668 3.89875 -8.738541666666666 8.738541666666666 -8.738541666666666h19.493958333333335c-0.4033333333333334 -0.4033333333333334 -2.0166666666666666 -1.075625 -3.6297916666666667 -0.9410416666666667 -0.6722916666666667 0 -2.0166666666666666 0.26895833333333335 -2.8233333333333333 -0.26895833333333335 -0.8066666666666668 -0.6722916666666667 -0.6722916666666667 -1.075625 -1.8820833333333333 -1.075625H10.266041666666666c-5.512083333333334 0 -9.948541666666667 4.436458333333334 -9.948541666666667 9.948541666666667v24.468125c0 5.512083333333334 4.436458333333334 9.948541666666667 9.276458333333334 9.814166666666667 1.3441666666666667 0 1.7475 -1.0754166666666667 2.1508333333333334 -1.8820833333333333zM42.531666666666666 14.470625v22.720416666666665c0 4.839791666666668 -3.89875 8.738541666666666 -8.738541666666666 8.738541666666666H24.78541666666667s-0.8066666666666668 2.151041666666667 1.7477083333333334 2.151041666666667h8.066458333333333c5.512083333333334 0 9.948541666666667 -4.436458333333334 9.948541666666667 -9.948541666666667V18.369375c0.13458333333333336 -1.8820833333333333 -1.47875 -3.0920833333333335 -2.0164583333333335 -3.89875zm-38.71895833333334 0.13458333333333336v22.58604166666667c0 4.033125 3.361041666666667 7.394166666666667 7.394166666666667 7.394166666666667h1.21c0 -0.13437500000000002 1.6133333333333335 -2.9577083333333336 5.108750000000001 -8.873125000000002 0.4033333333333334 -0.8066666666666668 0.9410416666666667 -1.6133333333333335 1.47875 -2.5543750000000003H9.190416666666668c-1.21 0 -1.8820833333333333 -0.8066666666666668 -2.0166666666666666 -1.47875 -0.26895833333333335 -1.075625 0.4033333333333334 -2.42 1.8820833333333333 -2.42h4.974375000000001l6.3187500000000005 -11.024166666666668s-1.47875 -2.68875 -1.8820833333333333 -3.361041666666667c-0.5379166666666667 -0.9410416666666667 -0.26895833333333335 -1.8820833333333333 0.26875000000000004 -2.419791666666667 0.8066666666666668 -0.8066666666666668 2.151041666666667 -1.21 3.495416666666667 0.9410416666666667l0.5377083333333333 0.8066666666666668 0.5377083333333333 -0.8066666666666668c1.21 -1.7477083333333334 2.0166666666666666 -1.6133333333333335 2.68875 -1.47875 1.075625 0.26895833333333335 1.7477083333333334 1.47875 0.8066666666666668 3.361041666666667L18.46666666666667 29.25916666666667h2.8233333333333333c0.9410416666666667 -1.6133333333333335 1.8820833333333333 -3.226666666666667 2.8233333333333333 -4.974375000000001 -0.13437500000000002 -0.6722916666666667 -0.26895833333333335 -1.47875 -0.13437500000000002 -2.151041666666667 0.13437500000000002 -1.075625 0.6722916666666667 -2.0166666666666666 1.344375 -2.8233333333333333l0.8066666666666668 1.344375c2.5543750000000003 -4.436458333333334 4.436458333333334 -8.200833333333334 4.974375000000001 -9.679791666666668 0.26895833333333335 -0.8066666666666668 0.6722916666666667 -2.42 0.26895833333333335 -3.7643750000000002H11.207083333333335c-4.167708333333334 0.00020833333333333335 -7.394375000000001 3.36125 -7.394375000000001 7.394583333333333zM9.593750000000002 37.056666666666665c0 -0.13437500000000002 1.6133333333333335 -2.9577083333333336 1.6133333333333335 -2.9577083333333336 2.5543750000000003 -0.6722916666666667 3.7643750000000002 0.9410416666666667 3.89875 1.075625 0 0 -1.7477083333333334 3.0920833333333335 -2.285416666666667 3.6297916666666667s-1.21 0.6722916666666667 -1.8820833333333333 0.5377083333333333c-1.0758333333333334 -0.26875000000000004 -1.7479166666666668 -1.344375 -1.3445833333333335 -2.285416666666667z" fill="#ffffff" stroke-width="1"></path></svg>