<svg width="69" height="69" viewBox="0 0 69 69" fill="none" xmlns="http://www.w3.org/2000/svg">
<path fill-rule="evenodd" clip-rule="evenodd" d="M1.82825 31.5269C0.266235 33.0889 0.266235 35.6216 1.82825 37.1837L31.5267 66.8821C33.089 68.4444 35.6215 68.4444 37.1837 66.8821L66.8822 37.1837C68.4442 35.6216 68.4442 33.0889 66.8822 31.5269L37.1837 1.82843C35.6215 0.266174 33.089 0.266174 31.5267 1.82843L1.82825 31.5269ZM34.4999 14.0001C33.119 14.0001 31.9999 15.1194 31.9999 16.5001V46.4644L25.3031 39.7679C24.3268 38.7916 22.744 38.7916 21.7677 39.7679C20.7914 40.7442 20.7914 42.327 21.7677 43.3033L32.3741 53.91C32.9125 54.4483 33.6349 54.6898 34.3385 54.6346C35.0421 54.6898 35.7648 54.4483 36.3031 53.91L46.9095 43.3033C47.8859 42.327 47.8859 40.7442 46.9095 39.7679C45.9332 38.7916 44.3505 38.7916 43.3741 39.7679L36.9999 46.1419V16.5001C36.9999 15.1194 35.8805 14.0001 34.4999 14.0001Z" fill="#D9D9D9"/>
</svg>
