<svg role="img" viewBox="0 0 50 50" xmlns="http://www.w3.org/2000/svg" id="Mongodb--Streamline-Simple-Icons.svg" height="50" width="50"><desc>Mongodb Streamline Icon: https://streamlinehq.com</desc><title>MongoDB</title><path d="M35.81875000000001 19.90625c-2.6333333333333337 -11.625000000000002 -8.858333333333334 -15.445833333333335 -9.527083333333335 -16.90625 -0.5833333333333335 -0.8208333333333334 -1.1041666666666667 -1.9875 -1.53125 -3 -0.075 1.03125 -0.11458333333333334 1.4270833333333335 -1.0895833333333333 2.466666666666667 -1.50625 1.1791666666666667 -9.245833333333334 7.670833333333333 -9.875000000000002 20.875 -0.5875 12.316666666666668 8.895833333333334 19.656250000000004 10.183333333333334 20.59166666666667l0.14583333333333337 0.10416666666666669A153.10416666666666 153.10416666666666 0 0 1 24.812500000000004 50h1.0020833333333334c0.23750000000000002 -2.1500000000000004 0.5916666666666667 -4.283333333333334 1.0625 -6.395833333333333 0.86875 -0.6166666666666667 1.2583333333333333 -0.9645833333333335 1.7708333333333335 -1.44375a23.62916666666667 23.62916666666667 0 0 0 7.58125 -17.633333333333336c0.020833333333333336 -1.6958333333333333 -0.21458333333333335 -3.4625 -0.4104166666666667 -4.620833333333334zm-11.116666666666669 17.072916666666668s0 -17.272916666666667 0.5729166666666667 -17.270833333333332c0.44375000000000003 0 1.0208333333333335 22.281250000000004 1.0208333333333335 22.281250000000004 -0.7937500000000001 -0.09375 -1.5937500000000002 -3.666666666666667 -1.5937500000000002 -5.010416666666667z" fill="#ffffff" stroke-width="1"></path></svg>