<svg role="img" viewBox="0 0 50 50" xmlns="http://www.w3.org/2000/svg" id="Postman--Streamline-Simple-Icons.svg" height="50" width="50"><desc>Postman Streamline Icon: https://streamlinehq.com</desc><title>Postman</title><path d="M28.181250000000002 0.20625000000000002C14.489583333333334 -1.55 1.9625000000000001 8.125 0.20625000000000002 21.81875c-1.75625 13.691666666666668 7.916666666666667 26.21666666666667 21.610416666666666 27.975000000000005 13.693750000000001 1.75625 26.222916666666666 -7.918750000000001 27.975000000000005 -21.612500000000004C51.550000000000004 14.489583333333334 41.87708333333333 1.9645833333333333 28.181250000000002 0.20625000000000002zm5.147916666666667 15.593750000000002a1.78125 1.78125 0 0 0 -1.2354166666666666 0.5208333333333334l-9.277083333333335 9.277083333333335 -0.6395833333333334 -0.6395833333333334 -1.3395833333333336 -1.3395833333333336c9.14375 -9.116666666666667 10.791666666666666 -9.204166666666667 12.491666666666669 -7.8187500000000005zm-10.131250000000001 10.127083333333333 9.250000000000002 -9.250000000000002a1.2916666666666667 1.2916666666666667 0 1 1 1.7645833333333334 1.88125l-9.789583333333333 8.59375 -1.225 -1.225zm0.6875000000000001 1.4458333333333333 -2.291666666666667 0.49583333333333335a0.125 0.125 0 0 1 -0.13958333333333336 -0.06666666666666668 0.125 0.125 0 0 1 0.020833333333333336 -0.15208333333333335l1.3437500000000002 -1.3437500000000002 1.0666666666666669 1.0666666666666669zm-5.839583333333334 -0.9562500000000002 2.441666666666667 -2.441666666666667 1.83125 1.8291666666666668 -4.122916666666667 0.8875000000000001a0.15416666666666667 0.15416666666666667 0 0 1 -0.17708333333333337 -0.08125 0.15 0.15 0 0 1 0.027083333333333334 -0.19375zm-7.595833333333334 12.620833333333334a0.15833333333333335 0.15833333333333335 0 0 1 -0.14375000000000002 -0.1729166666666667 0.16041666666666668 0.16041666666666668 0 0 1 0.04583333333333334 -0.09583333333333334h0.0041666666666666675l1.9708333333333334 -1.9708333333333334 2.5458333333333334 2.5458333333333334 -4.4229166666666675 -0.30625zm5.052083333333333 -2.6166666666666667a0.47500000000000003 0.47500000000000003 0 0 0 -0.24375000000000002 0.5333333333333334l0.4229166666666667 1.8020833333333335a0.2604166666666667 0.2604166666666667 0 0 1 -0.4395833333333333 0.24375000000000002h-0.00625l-1.9458333333333335 -1.9458333333333335 -0.6125 -0.6145833333333334 7.8375 -7.8291666666666675 3.791666666666667 -0.8187500000000001 1.8208333333333335 1.8208333333333335c-2.6145833333333335 2.295833333333334 -6.189583333333334 4.585416666666667 -10.625 6.808333333333334zm10.997916666666667 -7.141666666666667h-0.0041666666666666675l-1.7479166666666668 -1.7479166666666668 9.789583333333333 -8.59375a1.9833333333333334 1.9833333333333334 0 0 0 0.24791666666666667 -0.26458333333333334c-0.30833333333333335 2.8020833333333335 -4.227083333333334 6.760416666666667 -8.285416666666666 10.606250000000001zm7.61875 -13.458333333333334 -0.00625 -0.0041666666666666675a3.795833333333334 3.795833333333334 0 0 1 5.122916666666667 -5.591666666666668l-3.354166666666667 3.360416666666667a0.24791666666666667 0.24791666666666667 0 0 0 0 0.35208333333333336l2.597916666666667 2.597916666666667a3.785416666666667 3.785416666666667 0 0 1 -4.360416666666667 -0.7145833333333335zm5.370833333333334 0a3.5708333333333333 3.5708333333333333 0 0 1 -0.5645833333333334 0.4541666666666667h-0.0020833333333333337l-2.514583333333334 -2.514583333333334 3.19375 -3.19375c1.3770833333333334 1.5 1.3270833333333334 3.816666666666667 -0.1125 5.254166666666666zm-0.20833333333333337 -3.216666666666667a0.29791666666666666 0.29791666666666666 0 0 0 -0.11041666666666668 0.32708333333333334 0.8666666666666667 0.8666666666666667 0 0 1 -0.11041666666666668 0.9375000000000001 0.29166666666666674 0.29166666666666674 0 0 0 0.04791666666666667 0.4104166666666667 0.29375 0.29375 0 0 0 0.17500000000000002 0.0625 0.29166666666666674 0.29166666666666674 0 0 0 0.22083333333333335 -0.10416666666666669 1.4395833333333334 1.4395833333333334 0 0 0 0.18125 -1.5645833333333334 0.28750000000000003 0.28750000000000003 0 0 0 -0.40416666666666673 -0.06875z" fill="#ffffff" stroke-width="1"></path></svg>