<svg xmlns="http://www.w3.org/2000/svg" xmlns:xlink="http://www.w3.org/1999/xlink" viewBox="0,0,256,256" width="24px" height="24px" fill-rule="nonzero"><g fill="#ffffff" fill-rule="nonzero" stroke="none" stroke-width="1" stroke-linecap="butt" stroke-linejoin="miter" stroke-miterlimit="10" stroke-dasharray="" stroke-dashoffset="0" font-family="none" font-weight="none" font-size="none" text-anchor="none" style="mix-blend-mode: normal"><g transform="scale(10.66667,10.66667)"><path d="M8.537,24v0c-1.933,0 -3.5,-1.567 -3.5,-3.5v0c0,-1.933 1.567,-3.5 3.5,-3.5h3.5v3.5c0,1.933 -1.567,3.5 -3.5,3.5zM16.5,8h-3.5v-7h3.5c1.933,0 3.5,1.567 3.5,3.5v0c0,1.933 -1.567,3.5 -3.5,3.5zM8.5,8h3.5v-7h-3.5c-1.933,0 -3.5,1.567 -3.5,3.5v0c0,1.933 1.567,3.5 3.5,3.5zM8.5,16h3.5v-7h-3.5c-1.933,0 -3.5,1.567 -3.5,3.5v0c0,1.933 1.567,3.5 3.5,3.5zM16,9c-1.65685,3.58985 -5.91015,5.15685 -9.5,3.5c-3.58985,-1.65685 -5.15685,-5.91015 -3.5,-9.5c0,0 NaN,NaN NaN,NaNcNaN,NaN NaN,NaN NaN,NaNz"></path></g></g></svg>